<?xml version="1.0" standalone="no"?>
<!DOCTYPE svg PUBLIC "-//W3C//DTD SVG 20010904//EN"
 "http://www.w3.org/TR/2001/REC-SVG-20010904/DTD/svg10.dtd">
<svg version="1.0" xmlns="http://www.w3.org/2000/svg"
 width="225.000000pt" height="225.000000pt" viewBox="0 0 225.000000 225.000000"
 preserveAspectRatio="xMidYMid meet">

<g transform="translate(0.000000,225.000000) scale(0.100000,-0.100000)"
fill="#000000" stroke="none">
<path d="M1077 2143 c-4 -3 -7 -53 -7 -111 0 -102 -1 -105 -41 -183 -92 -176
-290 -336 -529 -426 l-85 -32 -3 -124 c-2 -121 -2 -126 23 -155 l25 -30 -46
-158 c-56 -199 -130 -418 -198 -588 l-53 -131 -72 -3 c-51 -2 -71 -6 -68 -15
5 -17 2129 -17 2134 0 3 9 -17 13 -68 15 l-72 3 -54 133 c-29 74 -75 200 -102
280 -47 140 -64 171 -76 140 -7 -16 84 -285 148 -439 l44 -106 -177 -7 c-97
-4 -208 -4 -247 -1 l-71 7 14 33 c7 18 22 66 33 106 11 41 23 82 26 91 5 12
-5 20 -47 33 -164 54 -284 148 -344 270 -20 41 -42 98 -49 127 -15 69 -34 68
-52 -2 -47 -187 -186 -328 -391 -395 -41 -13 -52 -21 -48 -33 5 -15 50 -170
63 -213 7 -24 -92 -32 -306 -24 l-178 8 44 106 c51 123 166 463 213 634 l33
117 33 0 c20 0 43 9 60 24 l28 23 35 -24 c29 -20 43 -23 71 -18 19 4 40 6 45
6 6 -1 55 -5 110 -9 109 -9 164 -29 190 -68 20 -31 34 -30 65 3 36 37 79 52
183 64 115 12 105 12 147 4 28 -5 42 -2 71 18 l35 24 28 -23 c17 -15 40 -24
61 -24 31 0 35 -3 41 -35 7 -39 20 -53 36 -37 6 6 6 22 -1 47 -9 34 -8 41 15
68 24 28 24 34 22 154 l-3 124 -85 32 c-168 64 -314 159 -424 278 -71 77 -146
209 -146 258 0 28 3 31 30 31 19 0 33 -7 40 -20 10 -19 19 -21 92 -18 64 2 83
7 92 20 8 14 7 23 -3 40 -10 16 -10 23 -2 26 15 5 14 45 -1 60 -7 7 -29 12
-49 12 -28 0 -38 5 -42 20 -5 18 -14 20 -94 20 -49 0 -93 -3 -96 -7z m37 -301
c34 -67 124 -179 187 -233 74 -63 191 -138 271 -174 37 -16 68 -34 68 -39 0
-4 -29 -6 -65 -4 -56 3 -69 8 -97 35 -45 43 -89 60 -183 68 -82 8 -144 31
-167 63 -24 33 -36 34 -65 1 -42 -46 -73 -58 -169 -64 -100 -7 -145 -23 -192
-68 -28 -27 -41 -32 -97 -35 -36 -2 -65 0 -65 4 0 5 20 17 45 28 67 27 196
107 272 168 78 62 186 195 209 255 9 24 18 43 20 43 2 0 15 -21 28 -48z m-4
-338 c0 -9 -5 -14 -12 -12 -18 6 -21 28 -4 28 9 0 16 -7 16 -16z m-62 -36 c-6
-18 -28 -21 -28 -4 0 9 7 16 16 16 9 0 14 -5 12 -12z m112 -21 c39 -18 79 -28
139 -33 66 -6 89 -12 111 -31 20 -16 30 -20 33 -11 3 10 7 10 17 1 14 -13 4
-37 -12 -27 -8 5 -9 1 -5 -10 4 -10 7 -24 7 -32 0 -8 5 -13 11 -11 6 1 14 -4
16 -10 3 -7 -2 -13 -11 -13 -9 0 -16 -6 -16 -14 0 -8 -3 -22 -6 -30 -5 -12 -2
-15 10 -10 11 4 16 1 16 -11 0 -10 -7 -15 -17 -14 -10 2 -34 -7 -53 -19 -22
-13 -51 -22 -77 -22 -60 0 -142 -19 -185 -43 l-38 -21 -37 21 c-42 24 -133 43
-202 43 -52 0 -110 30 -118 61 -3 10 -14 19 -24 19 -11 0 -19 7 -19 16 0 10 6
14 15 10 11 -4 15 2 15 24 0 19 -5 29 -12 27 -7 -1 -13 5 -13 13 0 9 7 14 18
12 9 -2 17 3 17 12 0 28 59 66 103 66 74 0 171 21 212 45 22 12 42 22 45 21 3
-1 30 -14 60 -29z m20 17 c0 -9 -5 -14 -12 -12 -18 6 -21 28 -4 28 9 0 16 -7
16 -16z m-205 -13 c7 -12 -12 -24 -25 -16 -11 7 -4 25 10 25 5 0 11 -4 15 -9z
m283 -9 c2 -7 -3 -12 -12 -12 -9 0 -16 7 -16 16 0 17 22 14 28 -4z m-360 -3
c-2 -6 -8 -10 -13 -10 -5 0 -11 4 -13 10 -2 6 4 11 13 11 9 0 15 -5 13 -11z
m440 -1 c-6 -18 -28 -21 -28 -4 0 9 7 16 16 16 9 0 14 -5 12 -12z m-518 -8 c0
-5 -7 -10 -15 -10 -8 0 -15 5 -15 10 0 6 7 10 15 10 8 0 15 -4 15 -10z m594
-9 c3 -4 3 -11 0 -14 -8 -8 -34 3 -34 14 0 11 27 12 34 0z m-654 -32 c0 -5 -7
-9 -15 -9 -15 0 -20 12 -9 23 8 8 24 -1 24 -14z m-100 -109 l0 -80 -110 0
-110 0 0 80 0 80 110 0 110 0 0 -80z m1080 0 l0 -80 -110 0 -110 0 0 80 0 80
110 0 110 0 0 -80z m-982 -108 c2 -7 -3 -12 -12 -12 -9 0 -16 7 -16 16 0 17
22 14 28 -4z m-63 -29 c31 -35 31 -46 3 -38 -25 8 -68 44 -68 57 0 19 43 6 65
-19z m855 19 c0 -13 -43 -49 -67 -57 -13 -3 -23 -3 -23 0 0 4 10 20 23 35 20
26 67 41 67 22z m-966 -17 c-14 -35 -74 -46 -112 -19 -37 26 -25 34 48 34 58
0 68 -2 64 -15z m831 6 c7 -12 -12 -24 -25 -16 -11 7 -4 25 10 25 5 0 11 -4
15 -9z m315 0 c0 -16 -42 -41 -68 -41 -30 0 -58 15 -66 35 -4 13 6 15 64 15
39 0 70 -4 70 -9z m-908 -23 c-12 -12 -35 -1 -27 12 3 5 13 6 21 3 10 -4 12
-9 6 -15z m78 -3 c0 -8 -7 -15 -15 -15 -8 0 -15 7 -15 15 0 8 7 15 15 15 8 0
15 -7 15 -15z m438 3 c-6 -18 -28 -21 -28 -4 0 9 7 16 16 16 9 0 14 -5 12 -12z
m-358 -6 c0 -14 -11 -21 -26 -15 -8 3 -11 9 -8 14 7 11 34 12 34 1z m280 -2
c0 -5 -7 -10 -15 -10 -8 0 -15 5 -15 10 0 6 7 10 15 10 8 0 15 -4 15 -10z
m-210 -26 c0 -17 -22 -14 -28 4 -2 7 3 12 12 12 9 0 16 -7 16 -16z m128 4 c-6
-18 -28 -21 -28 -4 0 9 7 16 16 16 9 0 14 -5 12 -12z m-68 -43 c0 -8 -4 -15
-9 -15 -13 0 -22 16 -14 24 11 11 23 6 23 -9z m-69 -397 c-30 -119 -97 -250
-171 -330 -52 -58 -115 -108 -133 -108 -3 0 -20 44 -38 98 -17 53 -34 102 -36
108 -2 6 15 16 39 23 127 38 265 144 323 248 16 29 31 50 33 48 2 -2 -6 -41
-17 -87z m211 -81 c62 -58 173 -120 237 -133 18 -4 30 -12 28 -18 -2 -6 -19
-55 -36 -109 -18 -53 -35 -97 -38 -97 -18 0 -81 50 -132 106 -88 96 -161 249
-185 389 l-7 40 35 -60 c20 -33 64 -86 98 -118z"/>
<path d="M1726 952 c-7 -11 32 -139 44 -147 21 -13 22 30 4 88 -19 58 -36 79
-48 59z"/>
</g>
</svg>
